<svg id="Capa_1" enable-background="new 0 0 512 512" height="512" viewBox="0 0 512 512" width="512" xmlns="http://www.w3.org/2000/svg"><g><g><path d="m371.47 504.503h-232.585c-19.026 0-34.45-15.424-34.45-34.45v-428.106c0-19.026 15.424-34.45 34.45-34.45h232.585c19.026 0 34.45 15.424 34.45 34.45v428.106c0 19.026-15.424 34.45-34.45 34.45z" fill="#8d9ca8"/></g><g><path d="m405.917 41.951v428.097c0 19.034-15.425 34.459-34.449 34.459h-19.993c19.024 0 34.449-15.425 34.449-34.459v-428.097c0-19.034-15.425-34.459-34.449-34.459h19.993c19.024.001 34.449 15.426 34.449 34.459z" fill="#7a8c98"/></g><g><g><path d="m360.082 37.873h-40.642c-3.783 0-7.248 2.117-8.974 5.484l-11.724 22.867c-2.659 5.188-7.278 8.327-12.246 8.327h-62.639c-4.968 0-9.587-3.139-12.246-8.327l-11.724-22.867c-1.726-3.366-5.191-5.484-8.974-5.484h-40.642c-7.358 0-13.316 5.958-13.316 13.305v409.643c0 7.348 5.958 13.305 13.316 13.305h209.81c7.358 0 13.316-5.958 13.316-13.305v-409.643c.001-7.347-5.957-13.305-13.315-13.305z" fill="#f2fbff"/></g></g><g><g><path d="m360.082 37.873h-19.993c7.358 0 13.316 5.958 13.316 13.305v409.643c0 7.348-5.958 13.305-13.316 13.305h19.993c7.358 0 13.316-5.958 13.316-13.305v-409.643c0-7.347-5.958-13.305-13.316-13.305z" fill="#dff6fd"/></g></g><g><path d="m495.319 136.525v36.321c0 9.327-7.561 16.888-16.888 16.888h-119.952c-4.347 0-8.553 1.546-11.866 4.361l-49.613 42.171c-3.54 3.009-8.98.493-8.98-4.153v-36.929c0-3.01-2.44-5.45-5.45-5.45h-10.921c-9.327 0-16.888-7.561-16.888-16.888v-36.321c0-9.327 7.561-16.888 16.888-16.888h206.783c9.326 0 16.887 7.561 16.887 16.888z" fill="#fe93bb"/></g><g><path d="m16.681 272.888v36.321c0 9.327 7.561 16.888 16.888 16.888h119.953c4.347 0 8.553 1.546 11.865 4.361l49.613 42.171c3.54 3.009 8.98.493 8.98-4.153v-36.929c0-3.01 2.44-5.45 5.45-5.45h10.921c9.327 0 16.888-7.561 16.888-16.888v-36.321c0-9.327-7.561-16.888-16.888-16.888h-206.782c-9.327 0-16.888 7.561-16.888 16.888z" fill="#d1f19e"/></g><g><path d="m495.317 136.52v36.328c0 9.327-7.557 16.884-16.884 16.884h-19.993c9.327 0 16.884-7.557 16.884-16.884v-36.328c0-9.327-7.557-16.884-16.884-16.884h19.993c9.327 0 16.884 7.557 16.884 16.884z" fill="#fe76a8"/></g><g><path d="m257.237 272.884v36.328c0 9.327-7.557 16.884-16.884 16.884h-10.926c-3.009 0-5.448 2.439-5.448 5.448v36.928c0 4.648-5.438 7.168-8.977 4.159l-11.016-9.367v-31.719c0-3.009 2.439-5.448 5.448-5.448h10.926c9.327 0 16.884-7.557 16.884-16.884v-36.328c0-9.327-7.557-16.884-16.884-16.884h19.993c9.326-.001 16.884 7.557 16.884 16.883z" fill="#bbec6c"/></g><path d="m478.432 112.139h-65.014v-70.192c-.001-23.13-18.818-41.947-41.948-41.947h-232.585c-23.13 0-41.947 18.817-41.947 41.947v206.555h-63.37c-13.446 0-24.385 10.939-24.385 24.385v36.321c0 13.446 10.939 24.385 24.385 24.385h15.605c4.141 0 7.497-3.357 7.497-7.498s-3.357-7.497-7.497-7.497h-15.605c-5.178 0-9.39-4.213-9.39-9.391v-36.321c0-5.178 4.212-9.39 9.39-9.39h206.783c5.178 0 9.39 4.212 9.39 9.39v36.321c0 5.178-4.212 9.391-9.39 9.391h-10.921c-7.139 0-12.948 5.808-12.948 12.948v32.502l-46.239-39.303c-4.663-3.964-10.601-6.146-16.721-6.146h-69.486c-4.141 0-7.497 3.357-7.497 7.497 0 4.141 3.357 7.498 7.497 7.498h12.901v136.459c0 23.13 18.817 41.947 41.947 41.947h232.586c23.129 0 41.947-18.817 41.947-41.947v-272.822h65.014c13.446 0 24.385-10.939 24.385-24.385v-36.321c.001-13.446-10.938-24.386-24.384-24.386zm-333.978 221.455h9.067c2.566 0 5.055.915 7.01 2.576l49.613 42.171c2.408 2.047 5.354 3.104 8.349 3.104 1.843 0 3.705-.401 5.471-1.217 4.634-2.143 7.513-6.646 7.513-11.752v-34.882h8.874c13.446 0 24.385-10.939 24.385-24.385v-36.321c0-13.446-10.939-24.385-24.385-24.385h-95.897v-197.325c0-3.203 2.61-5.808 5.818-5.808h40.642c.975 0 1.857.539 2.302 1.407l11.723 22.865c3.922 7.652 11.171 12.405 18.918 12.405h62.639c7.747 0 14.996-4.753 18.918-12.404l11.724-22.866c.445-.868 1.327-1.407 2.302-1.407h40.642c3.208 0 5.818 2.606 5.818 5.808v10.3c0 4.141 3.357 7.498 7.497 7.498 4.141 0 7.497-3.357 7.497-7.498v-10.3c0-11.471-9.337-20.803-20.813-20.803h-40.641c-6.627 0-12.622 3.663-15.645 9.561l-11.724 22.867c-1.343 2.621-3.479 4.25-5.574 4.25h-62.639c-2.095 0-4.231-1.628-5.574-4.25l-11.724-22.867c-3.023-5.897-9.018-9.561-15.645-9.561h-40.642c-11.477 0-20.813 9.332-20.813 20.803v197.324h-17.526v-206.555c0-14.861 12.091-26.952 26.952-26.952h232.584c14.861 0 26.952 12.091 26.952 26.952v70.192h-17.527v-15.723c0-4.141-3.357-7.497-7.497-7.497-4.141 0-7.497 3.357-7.497 7.497v15.723h-94.251c-13.446 0-24.385 10.939-24.385 24.385v36.321c0 13.446 10.939 24.385 24.385 24.385h8.874v34.882c0 5.106 2.879 9.609 7.513 11.752 1.766.817 3.628 1.217 5.471 1.217 2.995 0 5.941-1.057 8.349-3.104l49.613-42.17c1.954-1.662 4.444-2.577 7.01-2.577h7.421v263.591c0 3.203-2.61 5.808-5.818 5.808h-209.81c-3.208 0-5.818-2.605-5.818-5.808v-127.227zm253.968 136.459c0 14.861-12.091 26.952-26.952 26.952h-232.585c-14.861 0-26.952-12.091-26.952-26.952v-136.459h17.526v127.228c0 11.471 9.337 20.803 20.813 20.803h209.81c11.476 0 20.813-9.332 20.813-20.803v-263.591h17.527zm89.4-297.207c0 5.178-4.212 9.39-9.39 9.39h-119.953c-6.12 0-12.058 2.183-16.721 6.146l-46.239 39.303v-32.502c0-7.14-5.809-12.948-12.948-12.948h-10.921c-5.178 0-9.39-4.213-9.39-9.39v-36.321c0-5.178 4.212-9.39 9.39-9.39h206.783c5.178 0 9.39 4.213 9.39 9.39v36.322z"/></g></svg>