<svg id="Capa_1" enable-background="new 0 0 512.206 512.206" height="512" viewBox="0 0 512.206 512.206" width="512" xmlns="http://www.w3.org/2000/svg"><g><g><g><path d="m21.455 261.885v114.404c0 28.01 22.707 50.717 50.717 50.717h79.65c28.01 0 50.717-22.707 50.717-50.717v-114.404z" fill="#596c76"/></g><g><path d="m202.539 261.886v114.405c0 28.003-22.706 50.72-50.72 50.72h-22.785c28.015 0 50.72-22.717 50.72-50.72v-114.405z" fill="#465a61"/></g><g><path d="m193.416 504.706h-162.838v-22.01c0-44.966 36.452-81.419 81.419-81.419 44.966 0 81.419 36.452 81.419 81.419z" fill="#d9b1ee"/></g><g><path d="m193.413 482.698v22.011h-22.785v-22.011c0-22.489-9.114-42.836-23.845-57.578-12.202-12.202-28.254-20.541-46.174-23.047 3.725-.524 7.531-.798 11.393-.798 22.478 0 42.836 9.114 57.567 23.845 14.73 14.742 23.844 35.089 23.844 57.578z" fill="#cb97e7"/></g><g><path d="m111.997 426.187c-10.802 0-19.559-8.757-19.559-19.559v-45.084h39.119v45.084c-.001 10.802-8.758 19.559-19.56 19.559z" fill="#fed2a4"/></g><g><path d="m131.554 361.544v45.09c0 10.799-8.761 19.559-19.559 19.559-3.552 0-6.907-.948-9.779-2.632 5.845-3.368 9.779-9.695 9.779-16.927v-45.09z" fill="#ffbd86"/></g><g><path d="m111.997 386.382c-45.119 0-81.696-36.576-81.696-81.695v-66.618l36.424-21.918 45.272 21.918h81.696v66.618c-.001 45.118-36.577 81.695-81.696 81.695z" fill="#fed2a4"/></g><g><path d="m193.687 238.064v66.624c0 45.115-36.57 81.697-81.685 81.697-3.919 0-7.77-.273-11.541-.82 39.658-5.594 70.167-39.681 70.167-80.876v-66.624h23.059z" fill="#ffbd86"/></g><g><path d="m193.56 197.471c-6.467-13.595-15.336-23.836-24.851-31.546-16.412-13.298-36.563-19.946-56.713-19.946l-4.874.132c-14.033.748-27.923 4.73-40.394 11.939l-.003.002c-3.971 2.296-7.798 4.921-11.441 7.872-9.515 7.709-18.383 17.951-24.851 31.545-6.205 13.044-8.979 27.457-8.979 41.901v25.86h8.846c25.449-7.219 36.424-47.329 36.424-47.329h.001c21.809 38.131 77.619 46.192 110.51 47.495 4.871.193 12.775-.222 16.456-.222h8.846v-25.802c.001-14.444-2.772-28.858-8.977-41.901z" fill="#596c76"/></g><g><path d="m202.539 239.374v25.804s0 0-8.852 0c-3.099 0-9.182.285-13.933.273v-22.899c0-14.446-2.768-28.858-8.977-41.902-6.471-13.591-15.335-23.833-24.847-31.546-16.417-13.295-36.57-19.948-56.713-19.948l-1.185.034c6.243-1.709 12.657-2.734 19.094-3.076l4.876-.137c20.142 0 40.296 6.653 56.713 19.949 9.513 7.713 18.376 17.955 24.847 31.546 6.208 13.044 8.977 27.456 8.977 41.902z" fill="#465a61"/></g></g><g><circle cx="358.38" cy="139.871" fill="#fe93bb" r="132.371"/></g><g><path d="m490.753 139.875c0 73.1-59.27 132.37-132.37 132.37-27.26 0-52.6-8.24-73.65-22.37 17.01 7.96 35.98 12.4 56 12.4 73.1 0 132.37-59.27 132.37-132.37 0-45.86-23.32-86.27-58.75-110.02 45.13 21.09 76.4 66.89 76.4 119.99z" fill="#fe76a8"/></g><g><g><path d="m271.545 134.317c0 7.35 5.958 13.308 13.308 13.308-7.35 0-13.308 5.958-13.308 13.308s5.958 13.308 13.308 13.308h42.578c3.529 0 6.115 3.336 5.224 6.751-4.642 17.801-5.219 31.28-4.653 40.261.47 7.465 6.646 13.281 14.126 13.281h1.417c7.034 0 12.736-5.702 12.736-12.736 0 0-2.68-28.565 27.41-52.038 9.8-7.645 18.903-13.256 18.903-13.256v-69.49l-12.923-8.027c-11.794-7.326-19.569-11.208-33.453-11.208h-54.256-6.79c-7.35 0-13.308 5.958-13.308 13.308s5.958 13.308 13.308 13.308h-10.32c-7.35 0-13.308 5.958-13.308 13.308s5.958 13.308 13.308 13.308c-7.349-.002-13.307 5.956-13.307 13.306z" fill="#fed2a4"/></g><g><path d="m407 77.138h33.645c2.525 0 4.571 2.047 4.571 4.571v78.599c0 2.525-2.047 4.571-4.571 4.571h-33.645c-2.525 0-4.571-2.047-4.571-4.571v-78.599c-.001-2.524 2.046-4.571 4.571-4.571z" fill="#99e6fc"/></g><path d="m445.218 140.3v20c0 2.53-2.04 4.58-4.57 4.58h-33.64c-2.53 0-4.58-2.05-4.58-4.58v-20c0 2.53 2.05 4.58 4.58 4.58h33.64c2.53 0 4.57-2.05 4.57-4.58z" fill="#62dbfb"/></g><g><path d="m173.431 160.098c-17.207-13.941-39.025-21.619-61.434-21.619-.068 0-.136.001-.204.003l-4.874.132c-.065.001-.13.004-.196.008-15.403.821-30.531 5.294-43.749 12.936l-.053.031c-4.319 2.501-8.477 5.364-12.359 8.509-11.504 9.321-20.555 20.811-26.901 34.151-6.44 13.538-9.706 28.719-9.706 45.123v136.918c0 21.489 11.71 40.282 29.078 50.366-12.463 15.305-19.954 34.81-19.954 56.041v22.01c0 4.142 3.358 7.5 7.5 7.5h34.578c4.142 0 7.5-3.358 7.5-7.5s-3.358-7.5-7.5-7.5h-27.079v-14.51c0-31.553 19.881-58.534 47.768-69.12 3.076 11.564 13.632 20.11 26.15 20.11s23.074-8.546 26.15-20.109c27.888 10.584 47.769 37.564 47.769 69.118v14.51h-85.754c-4.142 0-7.5 3.358-7.5 7.5s3.358 7.5 7.5 7.5h93.254c4.142 0 7.5-3.358 7.5-7.5v-22.01c0-21.231-7.49-40.737-19.953-56.042 17.366-10.085 29.075-28.878 29.075-50.365v-136.917c0-16.404-3.265-31.586-9.706-45.123-6.345-13.34-15.396-24.83-26.9-34.151zm-88.493 237.915c-11.539 3.696-22.056 9.684-31.018 17.433-14.731-6.892-24.964-21.848-24.964-39.157v-39.042c9.774 24.841 30.387 44.273 55.982 52.44zm39.118 8.614c0 6.65-5.41 12.06-12.06 12.06s-12.059-5.41-12.059-12.06v-13.575c3.946.536 7.968.829 12.059.829s8.113-.293 12.06-.829zm-12.059-27.746c-40.912 0-74.195-33.284-74.195-74.195v-34.255c15.793-7.208 25.732-24.257 31.129-36.653 27.405 31.079 78.161 37.93 108.009 39.113 1.03.041 7.267.014 9.253-.039v31.834c-.001 40.912-33.285 74.195-74.196 74.195zm83.041-2.592c0 17.309-10.234 32.264-24.964 39.158-8.963-7.749-19.478-13.741-31.018-17.437v-8.324c25.595-8.167 46.208-27.598 55.982-52.438zm0-118.615s-4.667.054-6.852.117c-3.473.1-7.795.225-10.653.111-30.298-1.201-84.138-8.477-104.298-43.724-1.347-2.354-3.843-3.776-6.508-3.776-.313 0-.629.02-.946.06-3.007.382-5.49 2.537-6.29 5.461-2.694 9.844-13.314 36.165-30.312 41.809h-.224v-18.36c0-14.157 2.776-27.17 8.251-38.679 5.377-11.302 13.048-21.04 22.799-28.94 3.291-2.665 6.815-5.09 10.475-7.208.016-.009.031-.018.047-.027 11.142-6.432 23.898-10.204 36.9-10.912l4.668-.127c18.948.022 37.373 6.51 51.893 18.273 9.751 7.901 17.422 17.638 22.8 28.941 5.475 11.508 8.25 24.521 8.25 38.679z"/><path d="m80.278 285.293c-4.142 0-7.5 3.358-7.5 7.5v12.557c0 4.142 3.358 7.5 7.5 7.5s7.5-3.358 7.5-7.5v-12.557c0-4.142-3.358-7.5-7.5-7.5z"/><path d="m143.716 285.293c-4.142 0-7.5 3.358-7.5 7.5v12.557c0 4.142 3.358 7.5 7.5 7.5s7.5-3.358 7.5-7.5v-12.557c0-4.142-3.358-7.5-7.5-7.5z"/><path d="m388.304 175.672c3.489-2.722 6.904-5.188 9.819-7.212 2.208 2.402 5.365 3.919 8.877 3.919h33.645c6.656 0 12.071-5.415 12.071-12.071v-78.599c0-6.656-5.415-12.071-12.071-12.071h-33.645c-4.081 0-7.688 2.04-9.874 5.149l-3.497-2.173c-11.63-7.224-21.121-12.337-37.41-12.337h-61.045c-11.474 0-20.808 9.334-20.808 20.808 0 2.779.557 5.427 1.55 7.853-7.007 3.352-11.871 10.491-11.871 18.762 0 5.058 1.818 9.698 4.83 13.308-3.012 3.61-4.83 8.25-4.83 13.308s1.818 9.698 4.83 13.308c-3.012 3.61-4.83 8.25-4.83 13.308 0 11.473 9.334 20.808 20.808 20.808h39.876c-3.555 14.497-4.971 27.936-4.212 39.984.718 11.388 10.211 20.309 21.611 20.309h1.417c11.158 0 20.236-9.078 20.236-20.236 0-.234-.006-.414-.028-.647-.08-1.013-1.66-25.031 24.551-45.478zm49.412-91.034v72.741h-27.679c.034-.289-.108-72.741-.108-72.741zm-88.939 137.365c-.108 2.792-2.414 5.03-5.232 5.03h-1.417c-3.502 0-6.419-2.747-6.64-6.253-.485-7.688-.11-20.505 4.425-37.897 1.014-3.89.185-7.946-2.274-11.129-2.462-3.186-6.183-5.013-10.208-5.013h-42.578c-3.203 0-5.808-2.605-5.808-5.808s2.605-5.808 5.808-5.808h31.635c4.142 0 7.5-3.358 7.5-7.5s-3.358-7.5-7.5-7.5h-31.635c-3.203 0-5.808-2.605-5.808-5.808s2.605-5.808 5.808-5.808h31.635c4.142 0 7.5-3.358 7.5-7.5s-3.358-7.5-7.5-7.5h-31.635c-3.203 0-5.808-2.605-5.808-5.808s2.605-5.808 5.808-5.808h10.32 21.314c4.142 0 7.5-3.358 7.5-7.5s-3.358-7.5-7.5-7.5h-21.314c-3.203 0-5.808-2.605-5.808-5.808s2.605-5.808 5.808-5.808h61.045c11.96 0 18.465 3.228 29.495 10.079l9.215 5.725v61.43c-3.664 2.408-9.591 6.451-15.851 11.335-31.122 24.278-30.563 53.832-30.3 58.157z"/><path d="m358.38 0c-15.139 0-30.031 2.406-44.265 7.151-3.93 1.31-6.053 5.558-4.743 9.487 1.311 3.93 5.558 6.052 9.487 4.743 12.702-4.234 25.998-6.381 39.521-6.381 68.854 0 124.871 56.017 124.871 124.871s-56.017 124.87-124.871 124.87-124.87-56.016-124.87-124.87c0-41.884 20.843-80.769 55.756-104.016 3.448-2.296 4.382-6.952 2.086-10.399s-6.952-4.381-10.399-2.086c-39.1 26.035-62.442 69.587-62.442 116.501 0 77.125 62.746 139.871 139.871 139.871s139.871-62.746 139.871-139.871-62.748-139.871-139.873-139.871z"/></g></g></svg>